<svg xmlns="http://www.w3.org/2000/svg" viewBox="0 0 75.1 74.89"><g data-name="图层 2"><path d="M37.52 0a37.67 37.67 0 0115.79 3.47 36.3 36.3 0 0117.08 15.78 37.87 37.87 0 014.71 18.58A37.08 37.08 0 0154.92 70.6a37.35 37.35 0 01-17.4 4.29A36.41 36.41 0 0119.31 70 36.42 36.42 0 013 52a37.11 37.11 0 011.71-32.69A36.47 36.47 0 0121.63 3.52 37.7 37.7 0 0137.52 0zm-4.08 3.47l-.31 33.69.25 28 .06 6.32a20 20 0 003.36.31 34.74 34.74 0 0020.44-6.32 33 33 0 0011.91-14.9 34.88 34.88 0 002.59-13.2 33.77 33.77 0 00-4.35-16.77 32.71 32.71 0 00-15-14 35.48 35.48 0 00-15.28-3.44 21.31 21.31 0 00-3.67.31z" fill="#ac568a" data-name="图层 1_复制 4"/></g></svg>